<svg width="96" height="96" xmlns="http://www.w3.org/2000/svg" xmlns:xlink="http://www.w3.org/1999/xlink" overflow="hidden"><defs><clipPath id="clip0"><rect x="982" y="184" width="96" height="96"/></clipPath></defs><g clip-path="url(#clip0)" transform="translate(-982 -184)"><path d="M1074 217 1076 217 1076 219 1074 219Z"/><path d="M1070 217 1072 217 1072 219 1070 219Z"/><path d="M1058 217 1060 217 1060 219 1058 219Z"/><path d="M1062 217 1064 217 1064 219 1062 219Z"/><path d="M1054 217 1056 217 1056 219 1054 219Z"/><path d="M1066 217 1068 217 1068 219 1066 219Z"/><path d="M1050 217 1052 217 1052 219 1050 219Z"/><path d="M1050 209 1052 209 1052 211 1050 211Z"/><path d="M1050 213 1052 213 1052 215 1050 215Z"/><path d="M1050 197 1052 197 1052 199 1050 199Z"/><path d="M1050 205 1052 205 1052 207 1050 207Z"/><path d="M1050 201 1052 201 1052 203 1050 203Z"/><path d="M1050 193 1052 193 1052 195 1050 195Z"/><path d="M1070 193 1072 193 1072 195 1070 195Z"/><path d="M1062 193 1064 193 1064 195 1062 195Z"/><path d="M1058 193 1060 193 1060 195 1058 195Z"/><path d="M1054 193 1056 193 1056 195 1054 195Z"/><path d="M1066 193 1068 193 1068 195 1066 195Z"/><path d="M1074 193 1076 193 1076 195 1074 195Z"/><path d="M1074 201 1076 201 1076 203 1074 203Z"/><path d="M1074 209 1076 209 1076 211 1074 211Z"/><path d="M1074 205 1076 205 1076 207 1074 207Z"/><path d="M1074 213 1076 213 1076 215 1074 215Z"/><path d="M1074 197 1076 197 1076 199 1074 199Z"/><path d="M995.001 203.983 995.001 206 1047 205.983 1047 203.983 995.001 203.983Z"/><path d="M1063 214 1065 214 1065 205.983 1065 203.983 1063 203.983 1055 203.983 1055 205.983 1063 205.983 1063 214Z"/><path d="M995.001 233 995.001 247.995 995.001 249.995 997.001 249.995 1063 249.995 1065 249.995 1065 247.995 1065 222 1063 222 1063 247.995 997.001 247.995 997.001 233 995.001 233Z"/><path d="M992 202.982C992 201.877 992.895 200.982 994 200.982L1047 200.982 1047 198.982 994 198.982C991.794 198.989 990.007 200.776 990 202.982L990 206 992 206Z"/><path d="M1068 202.982 1068 214 1070 214 1070 202.982C1069.99 200.776 1068.21 198.989 1066 198.982L1055 198.982 1055 200.982 1066 200.982C1067.1 200.982 1068 201.877 1068 202.982Z"/><path d="M1068 251C1068 252.105 1067.1 253 1066 253L994 253C992.895 253 992 252.105 992 251L992 233 990 233 990 251C990.007 253.206 991.794 254.993 994 255L1023 255 1023 265 1012 265 1012 267 1048 267 1048 265 1037 265 1037 255 1066 255C1068.21 254.993 1069.99 253.206 1070 251L1070 222 1068 222ZM1035 265 1025 265 1025 255 1035 255Z"/><path d="M1010 209 984 209 984 230 1010 230ZM1008 228 986 228 986 211 1008 211Z"/><path d="M991 215 1003 215 1003 217 991 217Z"/><path d="M991 221 999 221 999 223 991 223Z"/><path d="M1030 241C1037.73 241 1044 234.732 1044 227 1044 219.268 1037.73 213 1030 213 1022.27 213 1016 219.268 1016 227 1016.01 234.729 1022.27 240.992 1030 241ZM1023.01 236.737C1023.16 232.878 1026.41 229.868 1030.26 230.014 1033.92 230.153 1036.85 233.083 1036.99 236.737 1032.82 239.754 1027.18 239.754 1023.01 236.737ZM1027 225C1027 223.343 1028.34 222 1030 222 1031.66 222 1033 223.343 1033 225 1033 226.657 1031.66 228 1030 228 1028.34 228 1027 226.657 1027 225ZM1030 215C1036.62 214.99 1041.99 220.345 1042 226.961 1042 229.99 1040.86 232.909 1038.8 235.129 1038.17 232.209 1036.14 229.789 1033.38 228.663 1035.41 226.798 1035.55 223.635 1033.69 221.599 1031.82 219.562 1028.66 219.423 1026.62 221.288 1024.58 223.154 1024.45 226.316 1026.31 228.353 1026.41 228.461 1026.51 228.564 1026.62 228.663 1023.86 229.79 1021.83 232.21 1021.2 235.129 1016.7 230.279 1016.98 222.699 1021.83 218.199 1024.05 216.138 1026.97 214.995 1030 215Z"/><path d="M1057.75 235.608C1057.75 235.524 1057.66 235.44 1057.5 235.356L1047.5 232 1047.42 232C1047.24 232.012 1047.09 232.156 1047.08 232.336L1047.08 232.42 1050.36 242.5C1050.44 242.657 1050.6 242.755 1050.78 242.752 1050.86 242.752 1050.94 242.668 1051.03 242.5L1052.28 239.07C1052.29 239.066 1052.29 239.065 1052.3 239.068 1052.3 239.069 1052.3 239.069 1052.3 239.07L1056.24 243 1058 241.236 1054.06 237.3C1054.06 237.296 1054.06 237.289 1054.06 237.285 1054.06 237.284 1054.06 237.284 1054.06 237.283L1057.5 236.028C1057.66 235.947 1057.75 235.784 1057.75 235.608Z"/></g></svg>